<?xml version="1.0" standalone="no"?>
<!DOCTYPE svg PUBLIC "-//W3C//DTD SVG 20010904//EN"
 "http://www.w3.org/TR/2001/REC-SVG-20010904/DTD/svg10.dtd">
<svg version="1.0" xmlns="http://www.w3.org/2000/svg"
 width="512.000000pt" height="512.000000pt" viewBox="0 0 512.000000 512.000000"
 preserveAspectRatio="xMidYMid meet">
<metadata>
Created by potrace 1.14, written by Peter Selinger 2001-2017
</metadata>
<g transform="translate(0.000000,512.000000) scale(0.100000,-0.100000)"
fill="#000000" stroke="none">
<path d="M2369 4226 c-2 -2 -35 -7 -74 -10 -38 -4 -77 -9 -85 -11 -8 -2 -32
-6 -52 -9 -159 -24 -420 -108 -598 -194 -211 -102 -471 -277 -611 -412 -9 -8
-34 -31 -55 -51 -244 -226 -504 -550 -681 -848 -73 -122 -68 -193 17 -246 22
-14 40 -30 40 -36 0 -16 183 -286 272 -400 311 -399 667 -699 1053 -889 123
-60 363 -151 435 -164 14 -2 66 -13 115 -24 50 -11 97 -20 105 -20 8 0 47 -5
85 -11 39 -5 160 -8 270 -6 219 4 211 4 275 15 25 5 65 11 90 15 66 9 192 42
295 77 85 28 108 37 180 68 17 8 32 14 35 15 48 13 307 162 415 238 388 275
767 701 1009 1134 65 117 69 144 27 225 -49 94 -261 410 -301 448 -3 3 -39 46
-80 95 -90 109 -297 318 -402 408 -367 314 -794 513 -1227 573 -25 3 -57 8
-71 11 -30 6 -475 15 -481 9z"/>
</g>
</svg>
